<svg width="601" height="449" xmlns="http://www.w3.org/2000/svg" xmlns:xlink="http://www.w3.org/1999/xlink" overflow="hidden"><defs><clipPath id="clip0"><path d="M282 133 883 133 883 582 282 582Z" fill-rule="evenodd" clip-rule="evenodd"/></clipPath></defs><g clip-path="url(#clip0)" transform="translate(-282 -133)"><path d="M340 357C340 237.706 436.483 141 555.5 141 674.517 141 771 237.706 771 357 771 476.293 674.517 573 555.5 573 436.483 573 340 476.293 340 357Z" stroke="#FFFFFF" stroke-width="16" stroke-miterlimit="8" fill="#002060" fill-rule="evenodd"/><path d="M443 357C443 266.425 516.425 193 607 193 697.575 193 771 266.425 771 357 771 447.575 697.575 521 607 521 516.425 521 443 447.575 443 357Z" stroke="#FFFFFF" stroke-width="16" stroke-miterlimit="8" fill="#FF6600" fill-rule="evenodd"/><text fill="#FFFF00" font-family="Arial,Arial_MSFontService,sans-serif" font-style="oblique" font-weight="900" font-size="128" transform="translate(441.677 471)">WEB<tspan font-style="normal" font-size="184" x="-49.0406" y="-101">Voe</tspan></text></g></svg>